# xmcd
#
# Track frame offsets:
#	150
#	14814
#	27793
#	45966
#	58768
#	71080
#	87006
#	102074
#	114388
#	128266
#	140768
#	163002
#	175509
#	186951
#	201903
#	223139
#	248455
#	265429
#	283613
#	309893
#
# Disc length: 4541
#
# Revision: 1
# Processed by: cddbd v1.5.1PL0 Copyright (c) Steve Scherf et al.
# Submitted via: CDex 1.60beta1
# Normalized: r0:DSETVAR1
#
DISCID=1511bb14
DTITLE=Various Artist - Wbgo 25th Anniversary Compilation [CD3]
DYEAR=2004
DGENRE=Jazz
TTITLE0=Billy Eckstine - Everything I Have Is Yours
TTITLE1=Dinah Washington - Bargain Day
TTITLE2=Billie Holiday - Comes Love
TTITLE3=Joe Williams - Alright, Okay, You Win
TTITLE4=Louis Armstrong - That Old Feeling
TTITLE5=Carmen McRae - I Concentrate On You
TTITLE6=Mel Torme - Whatever Lola Wants
TTITLE7=Nancy Wilson - Save Your Love For Me
TTITLE8=Sarah Vaughan - I Believe In You
TTITLE9=Bill Henderson - The Lamp Is Low
TTITLE10=Johnny Hartman - My One And Only Love
TTITLE11=Nina Simone - Don't Let Me Be Misunderstood
TTITLE12=Ella Fitzgerald - Too Marvelous For Words
TTITLE13=Lou Rawls - For You My Love
TTITLE14=Betty Carter - All I Got
TTITLE15=Shirley Horn - Here's To Life
TTITLE16=Teri Thornton - Somewhere In The Night
TTITLE17=Kurt Elling - My Foolish Heart
TTITLE18=Diana Krall - Peel Me A Grape
TTITLE19=Dianne Reeves - Skylark
EXTD=YEAR: 2004
EXTT0=
EXTT1=
EXTT2=
EXTT3=
EXTT4=
EXTT5=
EXTT6=
EXTT7=
EXTT8=
EXTT9=
EXTT10=
EXTT11=
EXTT12=
EXTT13=
EXTT14=
EXTT15=
EXTT16=
EXTT17=
EXTT18=
EXTT19=
PLAYORDER=
